<?xml version="1.0" encoding="UTF-8"?>
<svg id="Layer_1" xmlns="http://www.w3.org/2000/svg" viewBox="0 0 1746 882">
  <defs>
    <style>
      .cls-1 {
        fill: #fff;
      }
    </style>
  </defs>
  <path class="cls-1" d="M1746,882c-582,0-1164,0-1746,0C0,588,0,294,0,0c582,0,1164,0,1746,0,0,294,0,588,0,882ZM873.36,73.1c-262,0-523.99,0-785.99,0-2.33,0-4.68-.09-7,.09-4.61.36-7.24,3.32-7.21,7.89.03,4.51,2.74,7.43,7.36,7.74,2.32.16,4.66.07,7,.07,519.99,0,1039.99,0,1559.98.01,10.17,0,9.54-1.09,9.54,9.32,0,204.5,0,408.99,0,613.49,0,1.33-.12,2.68.02,4,.44,4.18-1.43,5.5-5.51,5.44-14.16-.18-28.33-.06-42.5-.07q-8.09,0-8.1-8.27c0-1.5,0-3,0-4.5,0-182.83,0-365.66,0-548.49,0-2.33.06-4.67-.09-7-.33-4.96-2.93-7.43-7.97-7.7-1.66-.09-3.33-.04-5-.04-332.66,0-665.32,0-997.99,0-1.17,0-2.33-.01-3.5,0-6.76.13-9.15,2.55-9.33,9.45-.03,1.33-.02,2.67-.02,4,0,188.33,0,376.66,0,564.99,0,2-.03,4.01.12,6,.34,4.51,2.86,6.96,7.34,7.27,2.32.16,4.66.08,7,.08,327.32,0,654.63,0,981.95,0,2,0,4.02.18,6-.03,4.49-.49,5.73,1.57,5.67,5.81-.19,13.66-.06,27.33-.07,41,0,10.44.68,9.41-9.45,9.41-297.33.01-594.66,0-891.99,0-52,0-104,0-156,0-6.62,0-6.62-.03-6.66-6.71-.01-1.83,0-3.67,0-5.5,0-207.16,0-414.33,0-621.49,0-2.5.08-5.01-.18-7.49-.42-4.02-2.84-6.27-6.83-6.69-1.98-.21-4-.12-5.99-.12-164.66,0-329.33,0-493.99,0-1.83,0-3.67-.07-5.5.08-4.48.36-6.98,2.83-7.28,7.33-.15,2.16-.12,4.33-.12,6.5,0,236,0,471.99,0,707.99,0,2.17-.03,4.34.12,6.5.31,4.5,2.81,6.98,7.29,7.32,1.99.15,4,.08,6,.08,108.67,0,217.33,0,326,0,415.66,0,831.32,0,1246.98,0,12.41,0,13.52-1.08,13.52-13.28,0-17.5.14-35-.09-52.5-.06-4.75,1.39-6.37,6.24-6.31,18.5.23,37,.11,55.5.08,8.09-.01,10.3-2.24,10.33-10.45.05-17-.02-34,.03-51,.03-11.84-1.17-10.49,10.32-10.53,17.5-.06,35,.02,52.5-.05,6.5-.03,8.94-2.57,9.15-9.1.04-1.33.02-2.67.02-4,0-236.5,0-472.99,0-709.49,0-1.83.04-3.67-.09-5.5-.35-4.75-2.85-7.29-7.54-7.61-1.83-.13-3.66-.07-5.5-.07-524.66,0-1049.32,0-1573.98,0-1.83,0-3.68-.07-5.5.08-4.59.39-7.22,3.35-7.18,7.93.05,4.49,2.77,7.4,7.4,7.71,2.32.16,4.66.07,7,.07,519.99,0,1039.99,0,1559.98.01,10.15,0,9.51-1.07,9.51,9.35,0,228.5,0,456.99,0,685.49,0,1.33-.12,2.68.02,4,.44,4.21-1.5,5.46-5.54,5.41-13.83-.18-27.67-.05-41.5-.07-9.71-.02-9.07.89-9.07-9.29,0-207.66,0-415.33,0-622.99,0-2.17.04-4.33-.03-6.5-.19-6.56-2.63-9.04-9.07-9.19-2.17-.05-4.33-.02-6.5-.02-261.33,0-522.66,0-783.99,0Z"/>
  <path d="M873.36,73.1c261.33,0,522.66,0,783.99,0,2.17,0,4.33-.03,6.5.02,6.44.15,8.89,2.63,9.07,9.19.06,2.17.03,4.33.03,6.5,0,207.66,0,415.33,0,622.99,0,10.18-.64,9.28,9.07,9.29,13.83.02,27.67-.11,41.5.07,4.05.05,5.99-1.2,5.54-5.41-.14-1.32-.02-2.66-.02-4,0-228.5,0-456.99,0-685.49,0-10.43.64-9.35-9.51-9.35-519.99-.01-1039.99,0-1559.98-.01-2.33,0-4.67.08-7-.07-4.63-.31-7.35-3.22-7.4-7.71-.05-4.57,2.58-7.53,7.18-7.93,1.82-.16,3.66-.08,5.5-.08,524.66,0,1049.32,0,1573.98,0,1.83,0,3.67-.06,5.5.07,4.68.32,7.19,2.86,7.54,7.61.13,1.83.09,3.66.09,5.5,0,236.5,0,472.99,0,709.49,0,1.33.02,2.67-.02,4-.21,6.54-2.65,9.08-9.15,9.1-17.5.07-35-.01-52.5.05-11.49.04-10.29-1.31-10.32,10.53-.05,17,.02,34-.03,51-.02,8.21-2.24,10.43-10.33,10.45-18.5.03-37,.15-55.5-.08-4.85-.06-6.31,1.56-6.24,6.31.22,17.5.09,35,.09,52.5,0,12.2-1.11,13.28-13.52,13.28-415.66,0-831.32,0-1246.98,0-108.67,0-217.33,0-326,0-2,0-4.01.08-6-.08-4.48-.35-6.98-2.82-7.29-7.32-.15-2.16-.12-4.33-.12-6.5,0-236,0-471.99,0-707.99,0-2.17-.03-4.34.12-6.5.3-4.5,2.81-6.97,7.28-7.33,1.82-.15,3.66-.08,5.5-.08,164.66,0,329.33,0,493.99,0,2,0,4.01-.09,5.99.12,3.98.41,6.41,2.67,6.83,6.69.26,2.48.18,4.99.18,7.49,0,207.16,0,414.33,0,621.49,0,1.83,0,3.67,0,5.5.04,6.67.04,6.7,6.66,6.71,52,0,104,0,156,0,297.33,0,594.66,0,891.99,0,10.12,0,9.44,1.03,9.45-9.41.01-13.67-.12-27.33.07-41,.06-4.25-1.18-6.31-5.67-5.81-1.98.22-4,.03-6,.03-327.32,0-654.63,0-981.95,0-2.33,0-4.67.08-7-.08-4.48-.31-7-2.76-7.34-7.27-.15-1.99-.12-4-.12-6,0-188.33,0-376.66,0-564.99,0-1.33-.02-2.67.02-4,.18-6.9,2.56-9.32,9.33-9.45,1.17-.02,2.33,0,3.5,0,332.66,0,665.32,0,997.99,0,1.67,0,3.34-.04,5,.04,5.05.26,7.65,2.74,7.97,7.7.15,2.32.09,4.66.09,7,0,182.83,0,365.66,0,548.49,0,1.5,0,3,0,4.5q0,8.26,8.1,8.27c14.17,0,28.33-.11,42.5.07,4.08.05,5.95-1.27,5.51-5.44-.14-1.32-.02-2.66-.02-4,0-204.5,0-408.99,0-613.49,0-10.41.63-9.32-9.54-9.32-519.99-.01-1039.99,0-1559.98-.01-2.33,0-4.67.08-7-.07-4.62-.32-7.33-3.23-7.36-7.74-.03-4.57,2.6-7.53,7.21-7.89,2.32-.18,4.66-.09,7-.09,262,0,523.99,0,785.99,0ZM1088.88,721.1c162.65,0,325.29,0,487.94,0q8.22,0,8.23-8.14c0-181.31,0-362.62,0-543.93q0-8.13-8.24-8.13c-325.13,0-650.25,0-975.38,0-1.67,0-3.5-.4-4.95.17-1.37.54-2.79,1.91-3.34,3.27-.58,1.44-.19,3.28-.19,4.95,0,181.14,0,362.29,0,543.43,0,1.67-.4,3.51.19,4.95.55,1.35,1.99,2.83,3.34,3.25,1.83.56,3.96.18,5.96.18,162.15,0,324.29,0,486.44,0ZM800.49,865.1c151.83,0,303.66,0,455.49,0,106.66,0,213.33,0,319.99,0,9.71,0,9.06.88,9.07-9.3.01-12.5.01-25,0-37.5-.01-10.44.66-9.39-9.47-9.39-351.83-.01-703.66,0-1055.48,0-2.17,0-4.34.05-6.5-.03-5.62-.19-8.2-2.68-8.48-8.24-.12-2.33-.06-4.67-.06-7,0-207.33,0-414.66,0-621.99,0-1.83-.13-3.68.02-5.5.32-3.81-1.16-5.68-5.15-5.27-1.32.14-2.66.02-4,.02-156.66,0-313.33,0-469.99,0q-8.98,0-8.98,8.89c0,228.83,0,457.66,0,686.49q0,8.82,9.05,8.82c258.16,0,516.32,0,774.49,0ZM1657.04,764.92c0-7.65-.1-15.31.04-22.96.07-3.51-1.03-5.14-4.83-5.11-15.47.13-30.94.13-46.41,0-3.71-.03-4.95,1.43-4.93,5.02.11,15.47.09,30.94.01,46.42-.02,3.27,1,4.87,4.57,4.85,15.64-.11,31.28-.11,46.91,0,3.48.02,4.72-1.39,4.66-4.76-.12-7.82-.04-15.64-.03-23.46Z"/>
  <path class="cls-1" d="M1088.88,721.1c-162.15,0-324.29,0-486.44,0-2,0-4.13.38-5.96-.18-1.36-.42-2.79-1.9-3.34-3.25-.59-1.44-.19-3.28-.19-4.95,0-181.14,0-362.29,0-543.43,0-1.67-.4-3.51.19-4.95.55-1.35,1.98-2.73,3.34-3.27,1.45-.57,3.28-.17,4.95-.17,325.13,0,650.25,0,975.38,0q8.23,0,8.24,8.13c0,181.31,0,362.62,0,543.93q0,8.13-8.23,8.14c-162.65,0-325.29,0-487.94,0ZM1071,328.78c0,20.98-.01,41.96,0,62.94,0,8.33.71,9,9.22,9,18.15,0,36.3.1,54.45-.06,24.21-.21,44.18-13.76,52.98-36.33,7.72-19.81,8.3-40.26,3.22-60.75-7.47-30.15-27.96-46.16-58.97-46.43-17.48-.15-34.97-.04-52.45-.03-7.75,0-8.44.71-8.44,8.7-.02,20.98,0,41.96,0,62.94ZM1410.35,404.09c29.96.07,53.22-15.93,63.65-44.03,5-13.46,6.45-27.32,4.88-41.69-4.45-40.88-33.51-62.03-60.75-64.62-28.21-2.68-55.03,10.71-67.72,36.26-9.06,18.23-10.81,37.43-7.14,57.35,6.29,34.12,32.8,56.65,67.08,56.73ZM1444.4,538.14c-.6.35-1.2.7-1.8,1.04-.28-.79-.38-1.71-.85-2.36-14.28-19.84-59.1-23.08-75.62,8.57-4.81,9.23-7.05,19.02-7.63,29.19-.67,11.91.89,23.59,5.62,34.67,14.16,33.11,56.73,39.76,80.05,12.54.17-.19.59-.17,1.17-.31.21.55.53,1.1.63,1.69.68,3.93-.02,9.5,2.3,11.39,2.59,2.11,7.89,1.01,12.02,1.07,7.65.1,7.68.01,7.68-7.91,0-45.82,0-91.63,0-137.45,0-1.17-.06-2.33-.02-3.5.11-3.09-1.18-4.6-4.45-4.48-4.16.15-8.33.02-12.49.04-5.85.02-6.58.71-6.59,6.62-.03,14.66-.01,29.32-.01,43.98,0,1.74,0,3.47,0,5.21ZM885.08,310.11c.06,0,.12,0,.18,0,0,15.33-.27,30.66.07,45.98.45,20.03,12.79,37.06,31.66,43.72,16.83,5.94,34.01,5.97,51.03.96,18-5.3,29.02-17.61,33.33-35.75,1.1-4.64,1.39-9.56,1.41-14.35.13-28.66.08-57.32.06-85.98,0-6.47-1.07-7.49-7.6-7.55-2.5-.03-5-.01-7.5,0-8.31.02-9.31,1.05-9.32,9.59-.03,26.99.12,53.99-.21,80.98-.08,6.04-.96,12.39-3.02,18.03-4.59,12.57-15.13,16.96-27.64,17.52-14.15.62-27.44-1.44-34.19-15.98-2.37-5.1-3.38-11.22-3.49-16.89-.49-27.48-.46-54.97-.62-82.46,0-1.67,0-3.33-.06-5-.14-3.8-1.95-5.84-5.93-5.77-3.5.07-7-.03-10.5,0-6.64.05-7.62.96-7.64,7.48-.04,15.16-.01,30.33-.01,45.49ZM765.39,257.13c-1.17,0-2.33,0-3.5,0q-10.01,0-13.55,9.29c-11.13,29.03-22.27,58.05-33.42,87.07-4.83,12.57-9.73,25.11-14.53,37.69-2.55,6.69-.65,9.5,6.34,9.55,3.17.03,6.34-.16,9.49.04,4.19.27,6.36-1.64,7.67-5.52,3.02-8.98,6.42-17.82,9.49-26.79,1.37-4,3.69-5.9,8.07-5.86,15.49.14,30.99.17,46.48-.01,4.63-.05,7.03,1.96,8.4,6.14,1.96,6,4.11,11.94,6.3,17.86,6.17,16.68,2.69,13.92,20.02,14.12,8.68.1,10.28-2.4,7.09-10.68-15.49-40.17-30.94-80.36-46.51-120.5-5.59-14.41-2.7-12.2-17.85-12.4ZM1093.32,585.86c11.66,0,23.33-.07,34.99.04,3.73.04,5.8-1.26,5.4-5.21-.64-6.26-.67-12.69-2.18-18.74-5.34-21.37-23.57-37.71-42.71-39.72-30.25-3.17-47.52,12.97-55.47,30.3-5.94,12.95-7.31,26.54-4.99,40.5,3.54,21.26,14.37,36.67,35.74,43.11,9.02,2.72,18.29,3.25,27.65,1.56,17.83-3.23,30.97-12.46,37.91-29.57,1.99-4.92.68-6.69-4.73-6.78-3.66-.07-7.41-.46-10.97.15-2.23.39-5.05,1.87-6.14,3.72-7.32,12.39-18.02,17.03-33.66,14.06-11.5-2.18-20.78-12.61-22.41-25.19-.85-6.54.5-8.17,7.07-8.2,11.5-.05,23-.01,34.49-.02ZM1220.07,540.65l-1.34-.26c0-3.09-.26-6.2.06-9.26.52-4.99-1.78-6.58-6.39-6.28-3.15.21-6.33,0-9.5.05-6.03.08-6.57.61-6.57,6.59-.01,21.83,0,43.66,0,65.49,0,11,.08,22-.04,33-.04,4.05,1.69,5.81,5.69,5.68,3.5-.11,7-.02,10.5-.02,7.09-.01,7.44-.33,7.45-7.26.02-19-.09-38,.05-56.99.11-15.46,7.54-27.05,19.99-30.01,13.93-3.31,26.03.09,29.06,15.77.75,3.9,1.05,7.93,1.07,11.91.11,20.16.14,40.33-.01,60.49-.03,4.55,1.67,6.38,6.18,6.14,3.99-.22,8-.11,12-.03,3.71.07,5.48-1.47,5.47-5.35-.07-24.83.27-49.67-.19-74.49-.25-13.56-5.79-24.85-19.07-30.25-17.35-7.06-39.41-5.39-52.42,12.92-.56.79-1.31,1.44-1.97,2.16ZM714.08,589.23c0,13.33.13,26.66-.07,39.98-.07,4.66,1.45,6.85,6.32,6.49,3.48-.25,6.99-.03,10.49-.05,6.06-.03,6.84-.81,6.84-6.97.01-26.49,0-52.98.01-79.46,0-5.79,1.21-7.03,6.94-7.2,3.16-.09,6.34.12,9.49-.14,1.34-.11,3.69-.95,3.75-1.63.4-4.4.84-8.95,0-13.2-.23-1.16-4.79-2.01-7.38-2.06-13.42-.25-13.66-.42-12.78-13.93.33-5.1,2.74-8.65,7.84-9.56,3.56-.63,7.26-.68,10.89-.62,3.22.05,4.61-1.27,4.56-4.41-.05-3-.07-6,0-8.99.07-2.88-1.29-4.41-4.12-4.48-6.63-.15-13.38-1.03-19.88-.15-13.61,1.85-19.33,7.74-22.14,21.24-.57,2.74-.61,5.61-.69,8.43q-.33,12.08-12.58,12.39c-.67.02-1.58-.23-1.95.11-1.51,1.36-4.04,2.87-4.08,4.38-.3,13.49-1.49,12.67,10.86,12.64,6.21-.02,7.62,1.46,7.65,7.71.05,13.16.02,26.32.02,39.48ZM1255.25,328.88c0,21.66-.02,43.31.02,64.97,0,5.27,1.57,6.78,6.82,6.87,3,.05,6,.02,9,0,7.28-.02,8.59-1.35,8.59-8.82,0-41.32,0-82.63,0-123.95,0-1.67.08-3.34-.03-5-.25-3.69-2.05-5.85-5.99-5.82-3.5.03-7-.03-10.49,0-6.83.05-7.89,1.07-7.89,7.77-.02,21.32,0,42.65,0,63.97ZM839.92,544.84c0-4.85-.15-9.77.05-14.67.16-3.94-1.59-5.41-5.35-5.29-3.66.13-7.33.15-10.99,0-4.05-.18-5.64,1.5-5.55,5.61.2,8.66.06,17.32.06,25.98,0,23.98,0,47.96,0,71.95,0,6.9.36,7.22,7.45,7.24,3.16,0,6.33.02,9.49,0,5.84-.04,6.6-.79,6.61-6.66.03-16.49-.23-32.98.11-49.46.36-17.63,11.01-38.27,35.85-34.96,3.33.44,4.99-1.31,5.01-4.62.03-4.33-.06-8.66.03-12.99.08-3.38-1.56-4.69-4.8-4.96-8.86-.72-17.15,1.08-23.76,6.99-5.08,4.54-9.19,10.17-14.2,15.85ZM961.71,580.22c0-16.5-.12-33,.08-49.49.05-4.41-1.6-6.03-5.84-5.85-4.33.18-8.66.09-13,.04-3.28-.03-4.81,1.31-4.8,4.78.07,33.66.06,67.32.02,100.98,0,3.7,1.82,5.04,5.26,4.98,4-.07,8.01-.2,12,.03,4.8.28,6.42-1.76,6.36-6.49-.2-16.33-.08-32.66-.08-48.99ZM950.03,482.33c-12.07.15-11.9-1.78-11.85,9.63.07,14.32-1.44,12.66,12.89,12.71,10.64.04,10.66,0,10.64-10.5-.02-13.14,1.26-11.81-11.68-11.84Z"/>
  <path class="cls-1" d="M800.49,865.1c-258.16,0-516.32,0-774.49,0q-9.05,0-9.05-8.82c0-228.83,0-457.66,0-686.49q0-8.89,8.98-8.89c156.66,0,313.33,0,469.99,0,1.33,0,2.68.12,4-.02,3.99-.41,5.46,1.45,5.15,5.27-.15,1.82-.02,3.66-.02,5.5,0,207.33,0,414.66,0,621.99,0,2.33-.05,4.67.06,7,.27,5.55,2.86,8.04,8.48,8.24,2.16.07,4.33.03,6.5.03,351.83,0,703.66,0,1055.48,0,10.13,0,9.46-1.05,9.47,9.39.01,12.5.01,25,0,37.5-.01,10.18.64,9.29-9.07,9.3-106.66.01-213.33,0-319.99,0-151.83,0-303.66,0-455.49,0ZM360.2,665.82c.1,2.08.25,3.86.25,5.65.02,16.33-.1,32.67.09,49,.05,3.99-1.13,6.81-3.97,9.62-20.97,20.74-41.8,41.64-62.61,62.54-1.73,1.74-3.77,3.67-4.43,5.88-1.74,5.84,1.94,10.54,9.36,10.5,46.65-.22,93.31-.11,139.97-.11.5,0,1,0,1.5-.02,5.83-.22,8.31-2.74,8.56-8.69.05-1.16.03-2.33.03-3.5,0-49.15,0-98.29,0-147.44,0-25.48,0-50.96,0-76.45,0-41.65,0-83.3,0-124.94,0-72.83,0-145.66,0-218.48,0-10.64-1.61-12.27-12.03-12.27-69.33,0-138.66,0-207.98,0-10.16,0-11.88,1.71-11.88,11.91-.01,40.66.07,81.33-.02,121.99-.11,49.49-.42,98.97-.47,148.46,0,4.36-1.2,5.79-5.61,5.72-14.5-.23-29-.27-43.49.02-4.99.1-6.65-1.36-6.6-6.48.24-22.81.1-45.63.1-68.45,0-25.15,0-50.3,0-75.45,0-40.31,0-80.63,0-120.94,0-2,.01-4,0-6-.08-8.74-2.13-10.77-11.02-10.78-22-.02-44-.02-65.99,0-8.79,0-10.86,2.06-10.87,10.91-.03,26.15-.01,52.3-.01,78.45,0,41.65,0,83.3-.02,124.94,0,3.33-.4,6.65-.39,9.98.04,23.32.04,46.64.34,69.96.03,2.73,1.06,6.18,2.89,8.04,21.43,21.7,43.05,43.22,64.79,64.61,3.26,3.2,4.54,6.46,4.47,10.97-.33,20.65-.48,41.31-.48,61.97,0,21.16.19,42.32.46,63.47.05,3.62-1.09,6.23-3.66,8.78-21.42,21.24-42.68,42.64-64.08,63.9-3.19,3.17-5.45,6.51-3.72,11.03,1.74,4.54,5.76,4.82,9.98,4.81,46.16-.05,92.31-.03,138.47-.04,8.76,0,10.79-2.07,10.84-10.95.21-41.99.4-83.97.59-125.96,0-1.95,0-3.9,0-6.16h126.67Z"/>
  <path class="cls-1" d="M1657.04,764.92c0,7.82-.08,15.64.04,23.46.05,3.36-1.18,4.78-4.66,4.76-15.64-.11-31.28-.11-46.91,0-3.57.02-4.59-1.58-4.57-4.85.08-15.47.1-30.94-.01-46.42-.03-3.59,1.21-5.05,4.93-5.02,15.47.13,30.94.13,46.41,0,3.8-.03,4.9,1.6,4.83,5.11-.14,7.65-.04,15.3-.05,22.96Z"/>
  <path d="M1071,328.78c0-20.98-.01-41.96,0-62.94,0-7.99.7-8.7,8.44-8.7,17.48-.01,34.97-.12,52.45.03,31.01.27,51.5,16.28,58.97,46.43,5.08,20.49,4.51,40.94-3.22,60.75-8.8,22.56-28.76,36.11-52.98,36.33-18.15.16-36.3.05-54.45.06-8.5,0-9.21-.67-9.22-9-.02-20.98,0-41.96,0-62.94ZM1095.1,328.82c0,13.83-.03,27.66.01,41.49.03,9.16,1.77,11.01,10.73,10.87,8.98-.15,17.99-.22,26.93-.97,18.1-1.53,30.78-12.88,34.7-30.7,2.9-13.18,2.84-26.51.39-39.68-3.51-18.88-15.26-29.85-34.48-32.06-9.22-1.06-18.6-.87-27.91-1.04-8.52-.15-10.32,1.66-10.35,10.1-.06,14-.02,27.99-.02,41.99Z"/>
  <path d="M1410.35,404.09c-34.28-.07-60.8-22.61-67.08-56.73-3.67-19.92-1.91-39.13,7.14-57.35,12.69-25.55,39.51-38.94,67.72-36.26,27.24,2.59,56.3,23.74,60.75,64.62,1.56,14.37.12,28.23-4.88,41.69-10.43,28.1-33.68,44.09-63.65,44.03ZM1410.19,384.34c19.18.02,33.11-9.51,40-27.96,6.58-17.61,6.74-35.51.65-53.27-6.63-19.34-21.11-29.91-40.27-29.97-19.21-.06-33.99,10.82-40.54,30.31-5.69,16.93-5.68,34.04.03,50.95,6.56,19.46,20.83,29.92,40.13,29.94Z"/>
  <path d="M1444.4,538.14c0-1.74,0-3.47,0-5.21,0-14.66-.02-29.32.01-43.98.01-5.91.74-6.6,6.59-6.62,4.17-.02,8.33.12,12.49-.04,3.27-.12,4.56,1.38,4.45,4.48-.04,1.16.02,2.33.02,3.5,0,45.82,0,91.63,0,137.45,0,7.92-.03,8-7.68,7.91-4.12-.05-9.43,1.04-12.02-1.07-2.32-1.88-1.62-7.45-2.3-11.39-.1-.59-.42-1.14-.63-1.69-.58.15-1,.12-1.17.31-23.31,27.22-65.88,20.58-80.05-12.54-4.74-11.07-6.3-22.76-5.62-34.67.58-10.18,2.81-19.97,7.63-29.19,16.52-31.66,61.34-28.42,75.62-8.57.47.65.58,1.57.85,2.36.6-.35,1.2-.7,1.8-1.04ZM1445.36,579.51c.44-.12.88-.25,1.32-.37-2.06-7.61-3.05-15.73-6.38-22.73-9.79-20.58-38.3-22.08-50.93-3.13-9.51,14.27-9.61,39.42-.22,53.73,11.41,17.38,36.9,17.65,48.57.42,5.7-8.41,7.8-17.88,7.64-27.93Z"/>
  <path d="M885.08,310.11c0-15.16-.03-30.33.01-45.49.02-6.52,1-7.43,7.64-7.48,3.5-.03,7,.06,10.5,0,3.98-.08,5.79,1.97,5.93,5.77.06,1.66.05,3.33.06,5,.16,27.49.13,54.98.62,82.46.1,5.68,1.12,11.8,3.49,16.89,6.75,14.54,20.04,16.61,34.19,15.98,12.51-.55,23.05-4.94,27.64-17.52,2.06-5.64,2.95-11.99,3.02-18.03.34-26.99.19-53.98.21-80.98,0-8.54,1.01-9.57,9.32-9.59,2.5,0,5-.02,7.5,0,6.52.07,7.59,1.08,7.6,7.55.02,28.66.07,57.32-.06,85.98-.02,4.79-.31,9.71-1.41,14.35-4.31,18.14-15.32,30.45-33.33,35.75-17.02,5.01-34.2,4.98-51.03-.96-18.86-6.66-31.21-23.68-31.66-43.72-.34-15.32-.07-30.66-.07-45.98-.06,0-.12,0-.18,0Z"/>
  <path d="M765.39,257.13c15.15.2,12.27-2,17.85,12.4,15.57,40.14,31.02,80.33,46.51,120.5,3.19,8.28,1.59,10.78-7.09,10.68-17.33-.2-13.84,2.57-20.02-14.12-2.19-5.92-4.34-11.86-6.3-17.86-1.37-4.18-3.76-6.19-8.4-6.14-15.49.18-30.99.16-46.48.01-4.38-.04-6.71,1.86-8.07,5.86-3.07,8.96-6.47,17.81-9.49,26.79-1.31,3.88-3.48,5.8-7.67,5.52-3.15-.21-6.33-.02-9.49-.04-6.99-.06-8.9-2.87-6.34-9.55,4.81-12.58,9.7-25.12,14.53-37.69,11.15-29.02,22.29-58.04,33.42-87.07q3.56-9.28,13.55-9.29c1.17,0,2.33,0,3.5,0ZM764.99,280.44c-1.04,2.25-1.61,3.24-1.98,4.31-5.79,16.44-11.59,32.88-17.31,49.35-2.22,6.38.34,10.03,7.09,10.12,7.82.11,15.65.07,23.47.02,7.73-.05,10.26-3.55,7.75-10.8-5.55-16-11.16-31.98-16.77-47.95-.47-1.34-1.15-2.6-2.25-5.05Z"/>
  <path d="M1093.32,585.87c-11.5,0-23-.03-34.49.02-6.57.03-7.92,1.66-7.07,8.2,1.64,12.58,10.91,23,22.41,25.19,15.64,2.97,26.34-1.67,33.66-14.06,1.09-1.85,3.9-3.33,6.14-3.72,3.56-.61,7.3-.22,10.97-.15,5.41.1,6.72,1.86,4.73,6.78-6.94,17.11-20.08,26.35-37.91,29.57-9.36,1.69-18.63,1.16-27.65-1.56-21.37-6.44-32.2-21.85-35.74-43.11-2.32-13.95-.95-27.55,4.99-40.5,7.95-17.33,25.22-33.47,55.47-30.3,19.13,2,37.37,18.34,42.71,39.72,1.51,6.05,1.54,12.48,2.18,18.74.4,3.95-1.66,5.25-5.4,5.21-11.66-.11-23.33-.04-34.99-.03ZM1079.99,570.87c7.66,0,15.33.14,22.98-.05,5.35-.13,6.7-2.18,5.44-7.38-3.4-14-13.57-22.75-26.93-23.19-13.72-.45-25.13,8.2-29.08,22.02-1.79,6.26-.3,8.47,6.11,8.58,7.16.12,14.32.03,21.48.01Z"/>
  <path d="M1220.07,540.65c.66-.72,1.41-1.37,1.97-2.16,13.01-18.31,35.07-19.98,52.42-12.92,13.28,5.41,18.82,16.7,19.07,30.25.45,24.82.11,49.66.19,74.49.01,3.88-1.76,5.42-5.47,5.35-4-.08-8.01-.19-12,.03-4.52.25-6.22-1.58-6.18-6.14.15-20.16.12-40.33.01-60.49-.02-3.98-.32-8.01-1.07-11.91-3.03-15.68-15.13-19.08-29.06-15.77-12.45,2.96-19.87,14.56-19.99,30.01-.14,19-.03,38-.05,56.99,0,6.94-.36,7.25-7.45,7.26-3.5,0-7-.09-10.5.02-4,.13-5.73-1.63-5.69-5.68.11-11,.04-22,.04-33,0-21.83,0-43.66,0-65.49,0-5.99.54-6.51,6.57-6.59,3.17-.04,6.34.16,9.5-.05,4.62-.3,6.91,1.29,6.39,6.28-.32,3.05-.06,6.17-.06,9.26l1.34.26Z"/>
  <path d="M714.07,589.23c0-13.16.03-26.32-.02-39.48-.03-6.25-1.44-7.73-7.65-7.71-12.36.04-11.16.85-10.86-12.64.03-1.5,2.57-3.02,4.08-4.38.38-.34,1.29-.09,1.95-.11q12.27-.31,12.58-12.39c.08-2.82.12-5.69.69-8.43,2.82-13.5,8.53-19.39,22.14-21.24,6.5-.88,13.24,0,19.88.15,2.83.07,4.19,1.6,4.12,4.48-.07,3-.05,6,0,8.99.05,3.14-1.35,4.46-4.56,4.41-3.63-.05-7.33-.01-10.89.62-5.1.91-7.5,4.46-7.84,9.56-.88,13.52-.64,13.69,12.78,13.93,2.59.05,7.15.9,7.38,2.06.84,4.25.4,8.8,0,13.2-.06.68-2.41,1.52-3.75,1.63-3.15.25-6.33.05-9.49.14-5.73.16-6.94,1.4-6.94,7.2-.02,26.49,0,52.98-.01,79.46,0,6.16-.78,6.93-6.84,6.97-3.5.02-7.01-.2-10.49.05-4.88.35-6.39-1.83-6.32-6.49.2-13.32.07-26.65.07-39.98Z"/>
  <path d="M1255.25,328.88c0-21.32-.01-42.65,0-63.97,0-6.7,1.07-7.72,7.89-7.77,3.5-.02,7,.04,10.49,0,3.94-.04,5.74,2.13,5.99,5.82.11,1.66.03,3.33.03,5,0,41.32,0,82.63,0,123.95,0,7.47-1.31,8.8-8.59,8.82-3,0-6,.04-9,0-5.25-.09-6.81-1.6-6.82-6.87-.04-21.66-.02-43.31-.02-64.97Z"/>
  <path d="M839.92,544.84c5.01-5.68,9.12-11.31,14.2-15.85,6.62-5.91,14.91-7.71,23.76-6.99,3.24.26,4.88,1.58,4.8,4.96-.1,4.33,0,8.66-.03,12.99-.02,3.31-1.68,5.06-5.01,4.62-24.83-3.31-35.49,17.34-35.85,34.96-.33,16.48-.08,32.97-.11,49.46-.01,5.88-.77,6.62-6.61,6.66-3.16.02-6.33,0-9.49,0-7.09-.01-7.44-.33-7.45-7.24-.01-23.98,0-47.96,0-71.95,0-8.66.15-17.32-.06-25.98-.1-4.12,1.5-5.79,5.55-5.61,3.66.16,7.33.13,10.99,0,3.76-.13,5.51,1.35,5.35,5.29-.19,4.9-.05,9.82-.05,14.67Z"/>
  <path d="M961.71,580.22c0,16.33-.12,32.66.08,48.99.06,4.73-1.57,6.77-6.36,6.49-3.99-.23-8-.1-12-.03-3.44.06-5.26-1.28-5.26-4.98.04-33.66.05-67.32-.02-100.98,0-3.48,1.53-4.82,4.8-4.78,4.33.04,8.67.13,13-.04,4.24-.17,5.89,1.44,5.84,5.85-.2,16.5-.08,32.99-.08,49.49Z"/>
  <path d="M950.03,482.33c12.94.04,11.66-1.3,11.68,11.84.02,10.51,0,10.54-10.64,10.5-14.33-.05-12.82,1.61-12.89-12.71-.06-11.41-.22-9.49,11.85-9.63Z"/>
  <path d="M360.2,665.82h-126.67c0,2.27,0,4.22,0,6.16-.19,41.99-.39,83.97-.59,125.96-.04,8.88-2.08,10.95-10.84,10.95-46.16.01-92.31-.01-138.47.04-4.22,0-8.25-.28-9.98-4.81-1.73-4.52.52-7.86,3.72-11.03,21.4-21.26,42.66-42.66,64.08-63.9,2.58-2.55,3.71-5.16,3.66-8.78-.27-21.16-.46-42.31-.46-63.47,0-20.66.15-41.32.48-61.97.07-4.51-1.21-7.77-4.47-10.97-21.74-21.39-43.36-42.91-64.79-64.61-1.84-1.86-2.86-5.31-2.89-8.04-.3-23.32-.3-46.64-.34-69.96,0-3.33.39-6.65.39-9.98.03-41.65.02-83.3.02-124.94,0-26.15-.02-52.3.01-78.45.01-8.85,2.08-10.91,10.87-10.91,22-.02,44-.02,65.99,0,8.89,0,10.94,2.04,11.02,10.78.02,2,0,4,0,6,0,40.31,0,80.63,0,120.94,0,25.15,0,50.3,0,75.45,0,22.82.14,45.63-.1,68.45-.05,5.12,1.61,6.58,6.6,6.48,14.49-.29,29-.25,43.49-.02,4.41.07,5.61-1.36,5.61-5.72.05-49.49.36-98.97.47-148.46.09-40.66.01-81.33.02-121.99,0-10.2,1.72-11.91,11.88-11.91,69.33,0,138.66,0,207.98,0,10.42,0,12.03,1.64,12.03,12.27,0,72.83,0,145.66,0,218.48,0,41.65,0,83.3,0,124.94,0,25.48,0,50.96,0,76.45,0,49.15,0,98.29,0,147.44,0,1.17.02,2.33-.03,3.5-.25,5.95-2.73,8.46-8.56,8.69-.5.02-1,.02-1.5.02-46.66,0-93.31-.11-139.97.11-7.42.03-11.1-4.66-9.36-10.5.66-2.21,2.7-4.14,4.43-5.88,20.82-20.9,41.64-41.79,62.61-62.54,2.84-2.81,4.02-5.64,3.97-9.62-.2-16.33-.07-32.66-.09-49,0-1.78-.15-3.57-.25-5.65ZM333.51,232.9c-31.32,0-62.64,0-93.96,0-6.56,0-6.59.03-6.6,6.76,0,62.31.04,124.61-.1,186.92-.01,4.92,1.27,6.69,6.44,6.62,21.48-.26,42.97-.11,64.45-.11,40.97,0,81.95-.08,122.92.1,5.14.02,6.48-1.65,6.46-6.6-.14-62.31-.09-124.61-.1-186.92,0-6.76-.03-6.78-7.07-6.78-30.82,0-61.64,0-92.46,0ZM405.04,577.09c7.65,0,15.31-.11,22.96.05,3.56.08,5.12-1.1,5.09-4.85-.12-15.47-.11-30.94,0-46.41.03-3.59-1.2-5.05-4.92-5.02-15.47.13-30.94.11-46.41.01-3.32-.02-4.85,1.07-4.83,4.59.1,15.64.11,31.28-.01,46.91-.03,3.84,1.7,4.83,5.17,4.77,7.65-.15,15.3-.05,22.96-.05ZM361.03,477.51c0-7.99-.09-15.97.04-23.96.05-3.43-1.31-4.71-4.73-4.69-15.64.1-31.28.09-46.91.01-3.17-.02-4.51,1.19-4.49,4.4.07,15.8.07,31.61,0,47.41-.01,3.18,1.27,4.44,4.46,4.43,15.64-.08,31.28-.11,46.91.03,3.87.03,4.83-1.73,4.77-5.17-.13-7.48-.04-14.97-.05-22.46ZM433.03,477.5c0-7.99-.09-15.97.04-23.96.06-3.44-1.34-4.7-4.74-4.68-15.64.1-31.28.09-46.91.01-3.18-.02-4.49,1.22-4.48,4.41.07,15.8.07,31.61,0,47.41-.01,3.19,1.3,4.43,4.48,4.41,15.64-.08,31.28-.09,46.91.01,3.4.02,4.8-1.23,4.74-4.67-.13-7.65-.04-15.3-.04-22.96ZM117.11,448.91c-7.82,0-15.64.09-23.46-.04-3.42-.06-4.75,1.26-4.73,4.69.09,15.64.09,31.28,0,46.91-.02,3.46,1.37,4.68,4.76,4.66,15.47-.1,30.94-.11,46.42.01,3.65.03,5.02-1.3,4.99-4.95-.11-15.47-.12-30.94,0-46.42.03-3.68-1.39-5-5.02-4.92-7.65.17-15.3.05-22.96.06ZM117.08,433.09c7.65,0,15.31-.12,22.96.05,3.6.08,5.07-1.19,5.05-4.9-.12-15.47-.11-30.94,0-46.41.03-3.63-1.29-5.01-4.96-4.98-15.47.13-30.94.11-46.41.01-3.36-.02-4.81,1.16-4.78,4.64.1,15.64.09,31.28,0,46.91-.02,3.4,1.26,4.78,4.7,4.72,7.82-.14,15.64-.04,23.46-.04ZM217.04,548.89c0-7.65-.1-15.31.04-22.96.07-3.54-1.1-5.11-4.86-5.08-15.47.13-30.94.13-46.41,0-3.74-.03-4.92,1.49-4.89,5.05.11,15.47.09,30.94.01,46.41-.02,3.3,1.06,4.84,4.6,4.81,15.64-.11,31.28-.11,46.91,0,3.51.02,4.68-1.45,4.63-4.79-.12-7.82-.04-15.64-.03-23.46ZM261.5,520.9c-7.65,0-15.31.14-22.96-.06-3.94-.11-5.71,1.04-5.66,5.32.18,15.3.13,30.61.03,45.92-.02,3.55,1.12,5.1,4.88,5.07,15.47-.13,30.94-.13,46.41,0,3.75.03,4.91-1.51,4.88-5.06-.11-15.3-.15-30.61.03-45.92.05-4.28-1.7-5.44-5.65-5.33-7.31.21-14.64.06-21.96.06ZM361.05,549.11c0-7.49-.18-14.98.07-22.46.14-4.26-1.21-5.9-5.67-5.83-14.97.22-29.95.22-44.92,0-4.49-.07-5.7,1.64-5.65,5.86.18,14.97.17,29.95.01,44.92-.04,4.02,1.19,5.62,5.41,5.57,15.14-.19,30.28-.19,45.42,0,4.25.05,5.5-1.6,5.38-5.6-.21-7.48-.06-14.97-.06-22.46ZM117.01,361.1c7.49,0,14.98-.15,22.46.06,3.95.11,5.7-1.06,5.65-5.33-.18-15.3-.13-30.61-.03-45.92.02-3.56-1.14-5.09-4.89-5.06-15.47.13-30.94.13-46.41,0-3.76-.03-4.9,1.53-4.87,5.07.11,15.3.15,30.61-.03,45.92-.05,4.29,1.72,5.42,5.66,5.32,7.48-.21,14.97-.06,22.46-.06ZM189.01,649.1c7.49,0,14.98-.15,22.46.06,3.96.11,5.69-1.07,5.64-5.34-.18-15.3-.13-30.61-.03-45.92.02-3.56-1.15-5.08-4.89-5.05-15.47.13-30.94.13-46.41,0-3.77-.03-4.89,1.54-4.87,5.07.11,15.3.16,30.61-.03,45.92-.05,4.29,1.74,5.42,5.67,5.31,7.48-.2,14.97-.06,22.46-.06ZM376.96,621.01c0,7.65.09,15.31-.04,22.96-.06,3.44.89,5.21,4.76,5.18,15.64-.14,31.28-.1,46.91-.03,3.19.02,4.48-1.24,4.47-4.42-.07-15.8-.07-31.61,0-47.41.01-3.2-1.32-4.42-4.49-4.4-15.64.08-31.28.09-46.91-.01-3.41-.02-4.79,1.25-4.73,4.68.13,7.82.04,15.64.03,23.46ZM88.96,260.49c0,7.99.09,15.97-.04,23.96-.05,3.43,1.31,4.71,4.73,4.69,15.64-.1,31.28-.09,46.91-.01,3.17.02,4.51-1.19,4.49-4.4-.07-15.8-.07-31.61,0-47.41.01-3.18-1.27-4.44-4.46-4.43-15.64.08-31.28.11-46.91-.03-3.87-.03-4.83,1.73-4.77,5.17.13,7.48.04,14.97.05,22.46ZM217.04,764.89c0-7.65-.1-15.31.04-22.96.07-3.54-1.1-5.11-4.86-5.08-15.47.13-30.94.13-46.41,0-3.74-.03-4.92,1.49-4.89,5.05.11,15.47.09,30.94.01,46.41-.02,3.3,1.06,4.84,4.6,4.81,15.64-.11,31.28-.11,46.91,0,3.51.02,4.68-1.45,4.63-4.79-.12-7.82-.04-15.64-.03-23.46ZM433.04,764.98c0-7.65-.09-15.31.04-22.96.06-3.45-.9-5.21-4.77-5.17-15.64.14-31.28.1-46.91.03-3.19-.02-4.48,1.25-4.46,4.43.07,15.8.07,31.61,0,47.41-.01,3.21,1.33,4.41,4.49,4.4,15.64-.08,31.28-.09,46.91.01,3.42.02,4.78-1.26,4.73-4.69-.13-7.82-.04-15.64-.03-23.46ZM233.54,476.78c0,7.99.12,15.99-.06,23.98-.07,3.31,1.2,4.38,4.37,4.36,15.49-.09,30.98-.09,46.47,0,3.4.02,4.77-1.23,4.75-4.68-.09-15.66-.1-31.31,0-46.97.02-3.5-1.46-4.64-4.81-4.62-15.49.1-30.98.1-46.47,0-3.24-.02-4.38,1.18-4.31,4.42.17,7.82.06,15.66.06,23.48ZM260.74,648.5c7.83,0,15.66-.18,23.48.08,3.8.12,4.91-1.32,4.88-4.91-.12-15.15-.12-30.3,0-45.46.03-3.74-1.06-5.41-5.1-5.37-15.32.16-30.64.16-45.96,0-4.02-.04-5.16,1.57-5.13,5.34.13,15.15.12,30.3,0,45.46-.03,3.56,1.02,5.07,4.85,4.94,7.65-.26,15.32-.08,22.98-.08ZM332.77,648.5c7.83,0,15.65-.11,23.48.05,3.29.07,4.87-.81,4.84-4.43-.12-15.48-.09-30.97-.01-46.46.02-3.31-1.08-4.83-4.62-4.81-15.65.11-31.3.11-46.95,0-3.57-.02-4.59,1.57-4.58,4.85.08,15.48.08,30.97,0,46.46-.02,3.15,1.04,4.47,4.36,4.39,7.82-.18,15.65-.06,23.48-.05ZM216.46,693.44c0-7.99-.09-15.99.05-23.98.05-3.06-.75-4.6-4.14-4.58-15.66.1-31.31.09-46.97,0-3.2-.02-4.47,1.27-4.45,4.45.07,15.82.05,31.65.01,47.47,0,2.84.99,4.32,4.06,4.31,15.82-.06,31.65-.06,47.47,0,3.02.01,4.07-1.21,4.02-4.19-.14-7.83-.05-15.66-.04-23.48ZM433.04,693c0-7.66-.09-15.33.04-22.98.06-3.47-.94-5.19-4.79-5.16-15.49.14-30.98.11-46.47.02-3.21-.02-4.36,1.13-4.34,4.4.12,15.82.13,31.65,0,47.47-.03,3.27,1.15,4.41,4.35,4.39,15.49-.09,30.98-.12,46.47.02,3.86.03,4.85-1.7,4.78-5.17-.14-7.66-.04-15.32-.04-22.98ZM144.63,562.74c-.06.18.31-.41.31-.99.05-12.31.02-24.63.1-36.94.02-3.57-2.17-3.93-4.95-3.92-10.65.04-21.3,0-31.95.03-1.89,0-3.78.19-5.05.26,13.91,13.92,27.76,27.78,41.54,41.57ZM145.05,751.14c-14.07,14.07-27.92,27.93-41.68,41.7.93.05,2.68.24,4.42.24,7.99.03,15.97.01,23.96.01q13.3,0,13.3-13.53v-28.43ZM360.53,750.54c.26.41.52.83.78,1.24-13.88,13.89-27.77,27.78-41.3,41.31,11.02,0,23.3-.12,35.57.07,4.09.06,5.61-1.3,5.54-5.45-.2-11.14-.05-22.29-.09-33.44,0-1.24-.32-2.49-.49-3.73Z"/>
  <path class="cls-1" d="M1095.1,328.82c0-14-.04-27.99.02-41.99.03-8.44,1.83-10.25,10.35-10.1,9.31.16,18.68-.03,27.91,1.04,19.22,2.21,30.97,13.18,34.48,32.06,2.45,13.17,2.5,26.5-.39,39.68-3.92,17.82-16.59,29.18-34.7,30.7-8.94.75-17.95.82-26.93.97-8.95.15-10.7-1.7-10.73-10.87-.04-13.83-.01-27.66-.01-41.49Z"/>
  <path class="cls-1" d="M1410.19,384.34c-19.3-.02-33.57-10.48-40.13-29.94-5.71-16.92-5.72-34.02-.03-50.95,6.56-19.49,21.33-30.38,40.54-30.31,19.16.06,33.64,10.64,40.27,29.97,6.09,17.76,5.93,35.66-.65,53.27-6.89,18.45-20.82,27.98-40,27.96Z"/>
  <path class="cls-1" d="M1445.36,579.51c.16,10.05-1.94,19.52-7.64,27.93-11.67,17.22-37.15,16.96-48.57-.42-9.39-14.31-9.29-39.46.22-53.73,12.63-18.95,41.14-17.46,50.93,3.13,3.33,7,4.32,15.12,6.38,22.73-.44.12-.88.25-1.32.37Z"/>
  <path class="cls-1" d="M764.99,280.44c1.1,2.45,1.78,3.71,2.25,5.05,5.61,15.98,11.22,31.95,16.77,47.95,2.51,7.24-.01,10.75-7.75,10.8-7.82.05-15.65.09-23.47-.02-6.75-.09-9.3-3.74-7.09-10.12,5.71-16.47,11.52-32.91,17.31-49.35.37-1.06.94-2.06,1.98-4.31Z"/>
  <path class="cls-1" d="M1079.99,570.88c-7.16,0-14.32.1-21.48-.02-6.41-.11-7.9-2.32-6.11-8.58,3.95-13.82,15.37-22.47,29.08-22.02,13.36.43,23.54,9.19,26.93,23.19,1.26,5.2-.08,7.24-5.44,7.38-7.66.19-15.32.05-22.98.06Z"/>
  <path class="cls-1" d="M333.51,232.9c30.82,0,61.64,0,92.46,0,7.04,0,7.07.02,7.07,6.78,0,62.31-.04,124.61.1,186.92.01,4.95-1.33,6.62-6.46,6.6-40.97-.19-81.95-.1-122.92-.1-21.48,0-42.97-.15-64.45.11-5.17.06-6.45-1.7-6.44-6.62.14-62.31.09-124.61.1-186.92,0-6.73.03-6.76,6.6-6.76,31.32-.01,62.64,0,93.96,0ZM331.06,394.28c5.45-.52,10.97-.66,16.34-1.62,18.41-3.3,33.4-11.93,42.74-28.74,3.14-5.65,2.01-10.79-2.44-13.03-4.44-2.24-8.64-.46-11.72,5.12-4.53,8.22-11.25,13.88-19.87,17.38-12.23,4.97-24.94,5.65-37.74,3.47-13.64-2.32-25.41-7.69-31.44-21.55-.8-1.85-3.65-3.58-5.79-3.95-6.95-1.19-11.09,5.12-8.06,12.23,4.07,9.54,11.19,16.43,20.05,21.55,11.72,6.75,24.5,9.12,37.92,9.15ZM389.62,292.01c0-8.23-7.56-15.74-15.75-15.63-8.09.11-15.29,7.25-15.5,15.38-.21,8.14,7.23,15.76,15.5,15.87,8.2.11,15.74-7.37,15.75-15.62ZM305.62,292.14c.13-8.19-7.37-15.75-15.61-15.77-8.04-.01-15.3,7.06-15.64,15.24-.33,8.08,7.05,15.78,15.36,16.01,8.14.23,15.76-7.2,15.89-15.48Z"/>
  <path class="cls-1" d="M405.04,577.09c-7.65,0-15.31-.1-22.96.05-3.47.07-5.2-.93-5.17-4.77.13-15.64.11-31.28.01-46.91-.02-3.52,1.5-4.61,4.83-4.59,15.47.09,30.94.11,46.41-.01,3.72-.03,4.95,1.43,4.92,5.02-.11,15.47-.12,30.94,0,46.41.03,3.75-1.53,4.93-5.09,4.85-7.65-.16-15.3-.05-22.96-.05Z"/>
  <path class="cls-1" d="M361.04,477.51c0,7.49-.09,14.97.04,22.46.06,3.44-.9,5.21-4.77,5.17-15.64-.14-31.28-.1-46.91-.03-3.19.02-4.48-1.25-4.46-4.43.07-15.8.07-31.61,0-47.41-.01-3.21,1.33-4.41,4.49-4.4,15.64.08,31.28.09,46.91-.01,3.42-.02,4.78,1.26,4.73,4.69-.13,7.98-.04,15.97-.04,23.96Z"/>
  <path class="cls-1" d="M433.03,477.5c0,7.65-.09,15.31.04,22.96.06,3.44-1.34,4.7-4.74,4.67-15.64-.1-31.28-.09-46.91-.01-3.18.02-4.49-1.22-4.48-4.41.07-15.8.07-31.61,0-47.41-.01-3.19,1.3-4.43,4.48-4.41,15.64.08,31.28.09,46.91-.01,3.4-.02,4.8,1.23,4.74,4.68-.13,7.98-.04,15.97-.04,23.96Z"/>
  <path class="cls-1" d="M117.11,448.91c7.65,0,15.31.12,22.96-.05,3.63-.08,5.05,1.24,5.02,4.92-.12,15.47-.11,30.94,0,46.42.03,3.65-1.34,4.98-4.99,4.95-15.47-.13-30.94-.11-46.42-.01-3.39.02-4.78-1.2-4.76-4.66.09-15.64.09-31.28,0-46.91-.02-3.43,1.31-4.75,4.73-4.69,7.82.14,15.64.04,23.46.04Z"/>
  <path class="cls-1" d="M117.08,433.09c-7.82,0-15.64-.1-23.46.04-3.45.06-4.72-1.31-4.7-4.72.09-15.64.09-31.28,0-46.91-.02-3.48,1.42-4.66,4.78-4.64,15.47.09,30.94.11,46.41-.01,3.68-.03,4.99,1.35,4.96,4.98-.11,15.47-.12,30.94,0,46.41.03,3.71-1.44,4.98-5.05,4.9-7.65-.17-15.3-.05-22.96-.05Z"/>
  <path class="cls-1" d="M217.04,548.89c0,7.82-.08,15.64.04,23.46.05,3.33-1.12,4.81-4.63,4.79-15.64-.11-31.28-.11-46.91,0-3.54.02-4.62-1.51-4.6-4.81.08-15.47.1-30.94-.01-46.41-.02-3.56,1.15-5.08,4.89-5.05,15.47.13,30.94.13,46.41,0,3.77-.03,4.93,1.54,4.86,5.08-.15,7.65-.04,15.3-.05,22.96Z"/>
  <path class="cls-1" d="M261.5,520.9c7.32,0,14.64.15,21.96-.06,3.95-.11,5.7,1.05,5.65,5.33-.18,15.3-.13,30.61-.03,45.92.02,3.55-1.13,5.09-4.88,5.06-15.47-.13-30.94-.13-46.41,0-3.76.03-4.9-1.52-4.88-5.07.11-15.3.15-30.61-.03-45.92-.05-4.28,1.72-5.43,5.66-5.32,7.65.2,15.3.06,22.96.06Z"/>
  <path class="cls-1" d="M361.05,549.11c0,7.49-.15,14.98.06,22.46.11,3.99-1.14,5.65-5.38,5.6-15.14-.19-30.28-.19-45.42,0-4.22.05-5.45-1.55-5.41-5.57.16-14.97.17-29.95-.01-44.92-.05-4.22,1.15-5.93,5.65-5.86,14.97.22,29.95.22,44.92,0,4.46-.07,5.81,1.57,5.67,5.83-.25,7.48-.07,14.97-.07,22.46Z"/>
  <path class="cls-1" d="M117.01,361.1c-7.49,0-14.98-.15-22.46.06-3.94.11-5.71-1.03-5.66-5.32.18-15.3.13-30.61.03-45.92-.02-3.54,1.11-5.1,4.87-5.07,15.47.13,30.94.13,46.41,0,3.75-.03,4.91,1.5,4.89,5.06-.11,15.3-.15,30.61.03,45.92.05,4.27-1.7,5.44-5.65,5.33-7.48-.21-14.97-.06-22.46-.06Z"/>
  <path class="cls-1" d="M189.01,649.1c-7.49,0-14.98-.14-22.46.06-3.93.11-5.72-1.02-5.67-5.31.18-15.3.13-30.61.03-45.92-.02-3.54,1.1-5.11,4.87-5.07,15.47.13,30.94.13,46.41,0,3.74-.03,4.92,1.49,4.89,5.05-.11,15.3-.15,30.61.03,45.92.05,4.27-1.69,5.45-5.64,5.34-7.48-.21-14.97-.06-22.46-.06Z"/>
  <path class="cls-1" d="M376.96,621.01c0-7.82.09-15.64-.04-23.46-.06-3.43,1.32-4.71,4.73-4.68,15.64.1,31.28.09,46.91.01,3.17-.02,4.5,1.2,4.49,4.4-.07,15.8-.07,31.61,0,47.41.01,3.19-1.28,4.44-4.47,4.42-15.64-.08-31.28-.11-46.91.03-3.87.03-4.82-1.74-4.76-5.18.13-7.65.04-15.3.04-22.96Z"/>
  <path class="cls-1" d="M88.96,260.49c0-7.49.09-14.97-.04-22.46-.06-3.44.9-5.21,4.77-5.17,15.64.14,31.28.1,46.91.03,3.19-.02,4.48,1.25,4.46,4.43-.07,15.8-.07,31.61,0,47.41.01,3.21-1.32,4.41-4.49,4.4-15.64-.08-31.28-.09-46.91.01-3.42.02-4.78-1.26-4.73-4.69.13-7.98.04-15.97.04-23.96Z"/>
  <path class="cls-1" d="M217.04,764.89c0,7.82-.08,15.64.04,23.46.05,3.33-1.12,4.81-4.63,4.79-15.64-.11-31.28-.11-46.91,0-3.54.02-4.62-1.51-4.6-4.81.08-15.47.1-30.94-.01-46.41-.02-3.56,1.15-5.08,4.89-5.05,15.47.13,30.94.13,46.41,0,3.77-.03,4.93,1.54,4.86,5.08-.15,7.65-.04,15.3-.05,22.96Z"/>
  <path class="cls-1" d="M433.04,764.98c0,7.82-.09,15.64.04,23.46.06,3.43-1.31,4.71-4.73,4.69-15.64-.1-31.28-.09-46.91-.01-3.17.02-4.51-1.19-4.49-4.4.07-15.8.07-31.61,0-47.41-.01-3.18,1.27-4.44,4.46-4.43,15.64.08,31.28.11,46.91-.03,3.87-.03,4.83,1.73,4.77,5.17-.13,7.65-.04,15.3-.04,22.96Z"/>
  <path class="cls-1" d="M233.54,476.78c0-7.83.12-15.66-.06-23.48-.07-3.24,1.07-4.44,4.31-4.42,15.49.09,30.98.09,46.47,0,3.35-.02,4.83,1.11,4.81,4.62-.1,15.66-.09,31.31,0,46.97.02,3.45-1.35,4.7-4.75,4.68-15.49-.1-30.98-.09-46.47,0-3.17.02-4.45-1.05-4.37-4.36.18-7.99.06-15.99.06-23.98Z"/>
  <path class="cls-1" d="M260.74,648.5c-7.66,0-15.32-.18-22.98.08-3.83.13-4.88-1.38-4.85-4.94.12-15.15.12-30.31,0-45.46-.03-3.77,1.11-5.38,5.13-5.34,15.32.16,30.64.16,45.96,0,4.05-.04,5.13,1.63,5.1,5.37-.13,15.15-.12,30.3,0,45.46.03,3.6-1.08,5.04-4.88,4.91-7.82-.25-15.65-.08-23.48-.08Z"/>
  <path class="cls-1" d="M332.77,648.5c-7.83,0-15.65-.12-23.48.06-3.32.08-4.38-1.24-4.36-4.39.08-15.48.08-30.97,0-46.46-.02-3.28,1.01-4.87,4.58-4.85,15.65.11,31.3.11,46.95,0,3.54-.02,4.63,1.5,4.62,4.81-.08,15.48-.11,30.97.01,46.46.03,3.61-1.55,4.5-4.84,4.43-7.82-.17-15.65-.05-23.48-.06Z"/>
  <path class="cls-1" d="M216.46,693.44c0,7.83-.09,15.66.04,23.48.05,2.98-1,4.2-4.02,4.19-15.82-.07-31.65-.06-47.47,0-3.07.01-4.07-1.47-4.06-4.31.04-15.82.05-31.65-.01-47.47-.01-3.17,1.25-4.46,4.45-4.45,15.66.08,31.31.09,46.97,0,3.4-.02,4.2,1.52,4.14,4.58-.14,7.99-.05,15.99-.05,23.98Z"/>
  <path class="cls-1" d="M433.04,693c0,7.66-.09,15.33.04,22.98.06,3.46-.93,5.2-4.78,5.17-15.49-.14-30.98-.11-46.47-.02-3.2.02-4.37-1.11-4.35-4.39.13-15.82.13-31.65,0-47.47-.03-3.26,1.13-4.41,4.34-4.4,15.49.09,30.98.12,46.47-.02,3.85-.03,4.85,1.69,4.79,5.16-.14,7.66-.04,15.32-.04,22.98Z"/>
  <path class="cls-1" d="M144.63,562.74c-13.78-13.79-27.63-27.65-41.54-41.57,1.27-.07,3.16-.26,5.05-.26,10.65-.03,21.3.02,31.95-.03,2.78-.01,4.97.34,4.95,3.92-.07,12.31-.05,24.63-.1,36.94,0,.59-.37,1.17-.31.99Z"/>
  <path class="cls-1" d="M145.05,751.14v28.43q0,13.53-13.3,13.53c-7.99,0-15.97.02-23.96-.01-1.74,0-3.49-.19-4.42-.24,13.76-13.77,27.61-27.63,41.68-41.7Z"/>
  <path class="cls-1" d="M360.53,750.54c.17,1.24.49,2.49.49,3.73.04,11.15-.11,22.3.09,33.44.07,4.15-1.45,5.51-5.54,5.45-12.27-.19-24.55-.07-35.57-.07,13.53-13.54,27.42-27.43,41.3-41.31-.26-.41-.52-.83-.78-1.24Z"/>
  <path d="M331.06,394.28c-13.42-.03-26.2-2.4-37.92-9.15-8.87-5.11-15.98-12.01-20.05-21.55-3.03-7.1,1.11-13.42,8.06-12.23,2.14.37,4.98,2.1,5.79,3.95,6.03,13.86,17.8,19.23,31.44,21.55,12.8,2.18,25.51,1.5,37.74-3.47,8.63-3.51,15.35-9.17,19.87-17.38,3.08-5.58,7.28-7.36,11.72-5.12,4.45,2.24,5.58,7.38,2.44,13.03-9.34,16.81-24.33,25.44-42.74,28.74-5.37.96-10.89,1.1-16.34,1.62Z"/>
  <path d="M389.62,292.01c0,8.25-7.55,15.73-15.75,15.62-8.27-.11-15.72-7.73-15.5-15.87.21-8.12,7.42-15.27,15.5-15.38,8.19-.11,15.75,7.4,15.75,15.63Z"/>
  <path d="M305.62,292.14c-.13,8.28-7.75,15.71-15.89,15.48-8.31-.23-15.69-7.93-15.36-16.01.34-8.17,7.6-15.25,15.64-15.24,8.24.01,15.73,7.58,15.61,15.77Z"/>
</svg>